<svg width="41" height="41" viewBox="0 0 41 41" fill="none" xmlns="http://www.w3.org/2000/svg">
<path d="M29 24L32 21M32 21L29 18M32 21H18M25 25V27.6C25 27.9152 24.9379 28.2273 24.8173 28.5184C24.6967 28.8096 24.5199 29.0742 24.2971 29.2971C24.0742 29.5199 23.8096 29.6967 23.5184 29.8173C23.2273 29.9379 22.9152 30 22.6 30H16.4C15.7635 30 15.153 29.7471 14.7029 29.2971C14.2529 28.847 14 28.2365 14 27.6V14.4C14 14.0848 14.0621 13.7727 14.1827 13.4816C14.3033 13.1904 14.4801 12.9258 14.7029 12.7029C15.153 12.2529 15.7635 12 16.4 12H22.6C22.9152 12 23.2273 12.0621 23.5184 12.1827C23.8096 12.3033 24.0742 12.4801 24.2971 12.7029C24.5199 12.9258 24.6967 13.1904 24.8173 13.4816C24.9379 13.7727 25 14.0848 25 14.4V17" stroke="#A09F9F" stroke-width="1.5" stroke-miterlimit="10" stroke-linecap="round" stroke-linejoin="round"/>
</svg>
