<svg width="172" height="47" viewBox="0 0 172 47" fill="none" xmlns="http://www.w3.org/2000/svg">
<path d="M69.8613 10.1621H74.8359V35H69.791L58.4883 18.6875V35H53.5137V10.1621H58.5586L69.8613 26.4746V10.1621Z" fill="#FFD028"/>
<path d="M95.3848 32.6797C93.498 34.5195 91.1543 35.4395 88.3535 35.4395C85.5527 35.4395 83.2031 34.5195 81.3047 32.6797C79.418 30.8398 78.4746 28.5547 78.4746 25.8242C78.4746 23.0938 79.418 20.8086 81.3047 18.9688C83.2031 17.1289 85.5527 16.209 88.3535 16.209C91.1543 16.209 93.498 17.1289 95.3848 18.9688C97.2715 20.8086 98.2148 23.0938 98.2148 25.8242C98.2148 28.5547 97.2715 30.8398 95.3848 32.6797ZM88.3535 30.9043C89.8066 30.9043 91.0078 30.4238 91.957 29.4629C92.9062 28.4902 93.3809 27.2773 93.3809 25.8242C93.3809 24.3711 92.9062 23.1641 91.957 22.2031C91.0078 21.2305 89.8066 20.7441 88.3535 20.7441C86.9121 20.7441 85.7109 21.2305 84.75 22.2031C83.7891 23.1758 83.3086 24.3828 83.3086 25.8242C83.3086 27.2656 83.7891 28.4727 84.75 29.4453C85.7109 30.418 86.9121 30.9043 88.3535 30.9043ZM104.842 35.4395C103.342 35.4395 101.994 35.1758 100.799 34.6484V29.8848C101.912 30.3887 103.078 30.6406 104.297 30.6406C105.574 30.6406 106.576 30.3125 107.303 29.6562C108.029 28.9883 108.393 28.0566 108.393 26.8613V10.1621H113.367V27.1074C113.367 29.6973 112.594 31.7363 111.047 33.2246C109.5 34.7012 107.432 35.4395 104.842 35.4395ZM131.543 16.6484H136.219V35H131.543V32.8027C129.938 34.5605 127.945 35.4395 125.566 35.4395C123.012 35.4395 120.879 34.5195 119.168 32.6797C117.457 30.8398 116.602 28.5547 116.602 25.8242C116.602 23.0938 117.457 20.8086 119.168 18.9688C120.879 17.1289 123.012 16.209 125.566 16.209C127.957 16.209 129.949 17.082 131.543 18.8281V16.6484ZM126.463 30.9043C127.916 30.9043 129.123 30.418 130.084 29.4453C131.057 28.4727 131.543 27.2656 131.543 25.8242C131.543 24.3828 131.057 23.1758 130.084 22.2031C129.123 21.2305 127.916 20.7441 126.463 20.7441C125.021 20.7441 123.82 21.2305 122.859 22.2031C121.898 23.1758 121.418 24.3828 121.418 25.8242C121.418 27.2656 121.898 28.4727 122.859 29.4453C123.82 30.418 125.021 30.9043 126.463 30.9043ZM162.797 16.209C164.871 16.209 166.529 16.8301 167.771 18.0723C169.025 19.3145 169.652 20.9727 169.652 23.0469V35H164.959V24.4531C164.959 23.3281 164.631 22.4316 163.975 21.7637C163.33 21.084 162.463 20.7441 161.373 20.7441C160.225 20.7441 159.293 21.0898 158.578 21.7812C157.863 22.4727 157.506 23.3867 157.506 24.5234V35H152.83V24.4531C152.83 23.3398 152.496 22.4434 151.828 21.7637C151.172 21.084 150.293 20.7441 149.191 20.7441C148.055 20.7441 147.129 21.0957 146.414 21.7988C145.699 22.4902 145.342 23.3984 145.342 24.5234V35H140.666V16.6484H145.342V18.5469C146.725 16.9883 148.535 16.209 150.773 16.209C152.051 16.209 153.182 16.4727 154.166 17C155.162 17.5156 155.953 18.248 156.539 19.1973C158.051 17.2051 160.137 16.209 162.797 16.209Z" fill="white"/>
<path d="M23.0088 36.0775C23.0088 36.0775 20.9696 37.1705 18.3487 37.5665C15.1546 38.0491 12.3236 37.0426 12.3236 37.0426C12.3236 37.0426 14.4606 35.7466 17.0113 35.4157C19.562 35.0848 22.2091 35.6501 22.2091 35.6501C22.2091 35.6501 20.7699 34.7876 18.5762 34.2093C16.4667 33.6532 13.2749 33.4303 10.2693 34.2714C8.39399 34.7961 6.83547 35.6214 5.92838 36.1679C8.79156 38.5598 12.4774 40 16.5 40C19.6317 40 22.5595 39.1275 25.0538 37.6124C24.9317 37.4891 24.7666 37.3394 24.553 37.1805C24.0153 36.7807 23.2708 36.2154 23.0088 36.0775Z" fill="white"/>
<path d="M13.8127 29.0323C13.8127 29.0323 12.2685 27.2951 8.62863 26.4954L0.412476 27.1801C0.622901 28.1039 0.913119 29.0077 1.27986 29.8813C1.92638 29.6483 3.88137 29.0131 6.75355 28.7014C10.3107 28.3153 13.8127 29.0323 13.8127 29.0323Z" fill="white"/>
<path d="M20.4581 33.3406C20.4581 33.3406 15.7892 30.5574 11.1479 30.3748C7.29383 30.2231 4.88623 30.3953 2.0462 31.4626C2.80845 32.8427 3.76389 34.1069 4.88358 35.2168C5.40739 34.8669 7.48316 33.5637 10.352 32.8373C14.309 31.8354 18.459 32.5512 20.4581 33.3406Z" fill="white"/>
<path d="M30.5781 22.2214C30.5781 22.2214 30.9227 25.2133 29.8611 28.1776C28.7423 31.3014 26.5705 33.4535 26.5705 33.4535C26.5705 33.4535 24.9528 33.3064 23.5373 31.413C22.5057 30.0331 22.5814 27.9662 22.5814 27.9662C22.5814 27.9662 24.0566 28.2465 25.0999 29.2254C25.9783 30.0496 26.6532 31.5968 26.6532 31.5968C26.6532 31.5968 26.7865 28.991 27.8206 26.4128C28.8004 23.9698 30.5781 22.2214 30.5781 22.2214ZM6.25719 18.5402C4.80582 21.2186 2.34159 23.2141 2.34159 23.2141C2.34159 23.2141 2.34159 20.1809 3.72032 17.3683C5.28899 14.1681 7.7738 12.3497 7.7738 12.3497C7.7738 12.3497 7.7738 15.7414 6.25719 18.5402ZM16.5 7.0002C7.38731 7.0002 0 14.3875 0 23.5002C0 24.5018 0.0893963 25.4826 0.260414 26.435L3.417 25.0892L14.6261 24.1379C14.6261 24.1379 17.5077 23.9311 19.0794 22.1938C20.6512 20.4566 20.9407 18.6505 20.8442 17.5889C20.8442 17.5889 20.3754 20.0844 18.5141 21.4907C16.6528 22.897 14.6813 22.8419 13.3163 22.9246C11.9514 23.0073 3.69275 23.6829 3.69275 23.6829C3.69275 23.6829 5.03012 22.7729 5.12663 22.7316C5.22314 22.6902 5.95387 22.2766 7.31882 22.1801C8.68376 22.0835 12.7924 21.7527 13.2336 21.7113C13.6748 21.6699 16.3219 21.408 17.1216 20.2774L7.7738 21.0081C7.7738 21.0081 8.79406 20.3188 8.98708 20.1809C9.18011 20.043 9.93841 19.6294 10.8759 19.5467C11.8135 19.464 15.6602 19.1606 16.2668 19.1193C16.8734 19.0779 18.7209 18.8297 18.9691 17.713L11.8273 18.3058C11.8273 18.3058 13.3025 17.3545 14.1022 16.803C14.9019 16.2515 16.1289 15.2037 16.6528 14.6935C17.1768 14.1834 18.6796 12.6668 19.4241 12.3497C20.1686 12.0326 21.4784 11.5224 22.802 11.9499C24.1256 12.3773 24.9666 13.0253 24.9666 13.0253L27.6551 12.9701C27.6551 12.9701 28.0412 13.0391 28.1515 13.2872L25.8076 14.5832C25.8076 14.5832 25.4492 15.2588 25.2975 16.0309C25.1458 16.803 25.0907 17.8508 25.0907 18.361C25.0907 18.8711 25.1183 20.2223 24.7736 21.3804C24.4289 22.5385 23.9601 23.545 23.2156 24.455C22.4711 25.3649 21.5336 26.3025 20.1273 26.9918C18.7209 27.6812 18.2935 27.8467 17.2871 28.0948C17.2871 28.0948 18.6934 28.8669 19.7688 29.832C20.8442 30.7971 21.7817 31.9139 21.9748 32.1897C21.9748 32.1897 22.8434 32.7687 23.5327 33.2375C24.2221 33.7063 25.0631 34.3956 25.5595 34.8506C25.9048 35.1672 26.5504 35.8174 26.9809 36.2441C30.6564 33.2179 33 28.6328 33 23.5002C33 14.3875 25.6127 7.0002 16.5 7.0002Z" fill="white"/>
<path d="M23.4914 14.4723C23.4914 14.0307 23.1333 13.6726 22.6917 13.6726C22.25 13.6726 21.892 14.0307 21.892 14.4723C21.892 14.9139 22.25 15.272 22.6917 15.272C23.1333 15.272 23.4914 14.9139 23.4914 14.4723Z" fill="white"/>
<path d="M15.0222 28.9211C16.4469 29.1876 19.1308 30.355 19.1308 30.355C16.6399 27.6159 13 27.0001 13 27.0001C13.8824 27.5332 15.0222 28.9211 15.0222 28.9211Z" fill="white"/>
</svg>
